<?xml version="1.0" encoding="utf-8"?>
<!-- Generator: Adobe Illustrator 16.0.0, SVG Export Plug-In . SVG Version: 6.00 Build 0)  -->
<!DOCTYPE svg PUBLIC "-//W3C//DTD SVG 1.1//EN" "http://www.w3.org/Graphics/SVG/1.1/DTD/svg11.dtd">
<svg version="1.1" id="Layer_1" xmlns="http://www.w3.org/2000/svg" xmlns:xlink="http://www.w3.org/1999/xlink" x="0px" y="0px"
	 width="300px" height="300px" viewBox="0 0 300 300" enable-background="new 0 0 300 300" xml:space="preserve">
<g>
	<path fill="#008B55" d="M81.947,216.229"/>
	<path fill="#12AAEB" d="M212.762,403.515l-4.652-23.809c-6.051,7.225-12.647,13.786-24.631,13.786
		c-8.332,0-14.061-3.176-18.815-7.543c4.751,4.367,10.479,7.539,18.812,7.539c11.982,0,18.582-6.559,24.629-13.791l-0.304-1.57
		l4.531-25.185l4.53-25.192v-1.223v-1.219v-24.802v-24.8c0-1.796,0.07-3.409-0.59-4.863c-0.656-1.455-1.396-2.753-2.574-3.933
		c-1.176-1.175-2.473-1.271-4.028-1.826c-1.558-0.56-3.157-0.065-4.956-0.065h-26.021H152.67h-26.02h-26.02
		c-1.794,0-3.505-0.492-5.061,0.065c-1.558,0.556-2.96,1.027-4.138,2.207c-1.18,1.177-2.564,2.288-3.219,3.744
		c-0.657,1.455-1.456,2.875-1.456,4.673v24.8v24.8v1.223v1.219l5.394,25.003l5.173,25.002l-1.506,7.999
		c10.327-9.614,16.105-24.789,34.32-24.789c5.003,0,9.065,1.147,12.544,3.006c-3.477-1.857-7.539-3.002-12.54-3.002
		c-18.216,0-23.993,15.166-34.319,24.789l-3.345,17.753l-4.853,25.763h65.051h65.048L212.762,403.515z"/>
	<g>
		<circle fill="#12AAEB" cx="244.1" cy="297.54" r="16.262"/>
		<circle fill="#12AAEB" cx="58.708" cy="297.54" r="16.262"/>
		<g>
			<g>
				<path fill="#12AAEB" d="M250.23,427.362h-10.838c-5.994,0-12.123,6.746-12.123,15.727v16.264c0,8.98,6.129,17.232,12.123,17.232
					h10.838c5.987,0,7.805-8.252,7.805-17.232v-16.264C258.035,434.108,256.215,427.362,250.23,427.362z"/>
				<g>
					<path fill="#12AAEB" d="M185.957,565.069c-17.955,0-32.521,14.062-32.521,32.521h65.051
						C218.486,579.133,203.926,565.069,185.957,565.069z"/>
					<path fill="#12AAEB" d="M180.85,441.719c-5.996,0-13.056,5.396-13.056,14.381v81.314c0,8.979,7.06,17.112,13.056,17.112h10.836
						c5.985,0,8.924-8.133,8.924-17.112V456.1c0-8.987-2.938-14.386-8.924-14.386L180.85,441.719L180.85,441.719z"/>
					<path fill="#12AAEB" d="M117.659,565.069c-17.962,0-32.523,14.062-32.523,32.521h65.048
						C150.184,579.133,135.621,565.069,117.659,565.069z"/>
					<path fill="#12AAEB" d="M123.387,554.521c5.987,0,9.54-8.132,9.54-17.111v-81.314c0-8.979-3.553-14.377-9.54-14.377h-10.841
						c-5.991,0-12.432,5.396-12.432,14.377v81.314c0,8.979,6.443,17.111,12.432,17.111H123.387z"/>
				</g>
				<path fill="#12AAEB" d="M64.842,427.362H54c-5.989,0-13.367,6.746-13.367,15.727v16.264c0,8.98,7.376,17.232,13.367,17.232
					h10.842c5.987,0,8.606-8.252,8.606-17.232v-16.264C73.448,434.108,70.829,427.362,64.842,427.362z"/>
				<path fill="#12AAEB" d="M248.087,330.029h-7.5c-6.912,0-12.473,7.846-12.473,18.872v12.863v28.52
					c0,11.023,5.561,21.055,12.473,21.055h7.5c6.911,0,12.546-10.03,12.546-21.055v-14.441v-26.945
					C260.641,337.875,255,330.029,248.087,330.029z"/>
				<path fill="#12AAEB" d="M62.697,330.029h-7.503c-6.912,0-12.473,7.846-12.473,18.872v12.863v28.52
					c0,11.023,5.561,21.055,12.473,21.055h7.503c6.912,0,12.55-10.03,12.55-21.055v-14.441v-26.945
					C75.247,337.875,69.609,330.029,62.697,330.029z"/>
			</g>
			<g>
				<path fill="#12AAEB" d="M230.557,153.25v-0.035l0.252-0.059c-0.688-0.499-1.102-0.879-1.925-1.146l-16.376-8.184
					c-7.113-26.762-25.061-47.341-47.332-53.644l-1.289-7.716h13.82c2.689,0,4.88-2.185,4.88-4.879c0-2.693-2.181-4.879-4.88-4.879
					h-15.452l-1.899-11.382h1.084c2.691,0,4.879-2.185,4.879-4.878c0-2.693-2.185-4.879-4.879-4.879h-2.711l-0.543-3.253
					c0-8.981,0.85-24.395-8.129-24.395c-8.981,0-8.129,15.412-8.129,24.395l-0.543,3.253h-2.71c-2.698,0-4.879,2.185-4.879,4.879
					c0,2.693,2.181,4.878,4.879,4.878h1.083L137.86,72.71h-15.449c-2.698,0-4.879,2.186-4.879,4.879
					c0,2.693,2.181,4.879,4.879,4.879h13.822l-1.355,8.139c-21.607,6.772-38.943,27.042-45.901,53.221l-16.461,8.184
					c-0.83,0.264-1.787,0.644-2.476,1.146l-0.483,0.059v0.035c-1.626,1.485-3.253,3.815-3.253,6.468v8.538v1.216v8.539
					c0,2.652,1.626,4.985,3.253,6.471v0.037l0.483,0.057c0.687,0.501,1.646,0.878,2.476,1.142l16.461,8.188
					c8.597,32.334,33.02,55.666,61.774,55.666c28.755,0,53.158-23.33,61.753-55.666l16.375-8.188
					c0.826-0.264,1.238-0.641,1.928-1.142l-0.252-0.057v-0.037c1.625-1.484,3.252-3.817,3.252-6.471v-8.539v-1.216v-8.538
					C233.809,157.066,232.184,154.734,230.557,153.25z M198.027,168.256v1.217v9.824c-3.252,28.406-24.053,49.939-47.974,49.939
					c-23.928,0-43.094-21.533-47.973-49.939v-9.824v-1.217v-9.822c4.877-28.409,24.045-49.939,47.973-49.939
					c23.923,0,44.722,21.533,47.974,49.939V168.256L198.027,168.256z"/>
				<g>
					<path fill="#12AAEB" d="M145.176,199.15c0,1.795-1.456,3.252-3.25,3.252l0,0c-1.797,0-3.253-1.457-3.253-3.252v-6.504
						c0-1.797,1.456-3.252,3.253-3.252l0,0c1.794,0,3.25,1.455,3.25,3.252V199.15z"/>
					<path fill="#12AAEB" d="M153.309,199.15c0,1.795-1.457,3.252-3.252,3.252l0,0c-1.796,0-3.252-1.457-3.252-3.252v-6.504
						c0-1.797,1.456-3.252,3.252-3.252l0,0c1.793,0,3.252,1.455,3.252,3.252V199.15z"/>
					<path fill="#12AAEB" d="M161.438,199.15c0,1.795-1.459,3.252-3.252,3.252l0,0c-1.799,0-3.254-1.457-3.254-3.252v-6.504
						c0-1.797,1.454-3.252,3.254-3.252l0,0c1.793,0,3.252,1.455,3.252,3.252V199.15z"/>
				</g>
				<g>
					<path fill="#12AAEB" d="M130.369,138.169c-8.981,0-16.262,7.279-16.262,16.263c0,8.982,7.281,16.262,16.262,16.262
						c8.979,0,16.262-7.277,16.262-16.262C146.631,145.448,139.348,138.169,130.369,138.169z M130.369,166.629
						c-6.738,0-12.198-5.461-12.198-12.197c0-6.738,5.46-12.198,12.198-12.198v12.198h12.197
						C142.566,161.166,137.107,166.629,130.369,166.629z"/>
					<path fill="#12AAEB" d="M169.74,138.169c-8.987,0-16.264,7.279-16.264,16.263c0,8.982,7.275,16.262,16.264,16.262
						c8.979,0,16.262-7.277,16.262-16.262C186.002,145.448,178.721,138.169,169.74,138.169z M169.74,166.629
						c-6.738,0-12.198-5.461-12.198-12.197c0-6.738,5.46-12.198,12.198-12.198v12.198h12.191
						C181.936,161.166,176.477,166.629,169.74,166.629z"/>
				</g>
			</g>
		</g>
	</g>
</g>
</svg>
